<svg xmlns="http://www.w3.org/2000/svg" width="800" height="800" viewBox="0 0 64 64" xml:space="preserve"><path fill="#FFF" d="M39.197 21H24v6.396c0 .575.308 1.075.766 1.356L24.803 48h14.395V30.376c.478-.276.802-.788.802-1.382V21h-.803z"/><path fill="#EBEDE8" d="M24 29.428v1.969a1.6 1.6 0 0 0 3.202 0v-1.598c0-.146.026-.286.063-.421a2.57 2.57 0 0 1-1.66.616A2.59 2.59 0 0 1 24 29.428zm15.197 4.948V48h-6V30.847c-.293.334-.718.55-1.197.55a1.599 1.599 0 0 1-1.598-1.598c0-.887-.716-1.603-1.604-1.603-.298 0-.572.087-.812.229.138-.316.215-.664.215-1.029v-1.598a.601.601 0 1 1 1.201 0A2.6 2.6 0 0 0 32 28.396c.434 0 .837-.117 1.197-.306V21h6v13.376z"/><path fill="#BBAA6F" d="M14.667 50.667c0 1.472 1.194 4.333 2.667 4.333h29.332c1.473 0 2.666-2.861 2.666-4.333L49.999 48H14.001l.666 2.667z"/><path fill="#CFBE83" d="M24.667 50.667 24.001 48h-2l.666 2.667c0 1.472 1.194 4.333 2.667 4.333h2c-1.473 0-2.667-2.861-2.667-4.333zm-4 0L20.001 48h-6l.666 2.667c0 1.472 1.194 4.333 2.667 4.333h6c-1.473 0-2.667-2.861-2.667-4.333z"/><path fill="#BBAA6F" d="M52.001 36.998a7.003 7.003 0 0 0-6.326 10.003l4.133 3.648a7.003 7.003 0 0 0 9.194-6.65 7.003 7.003 0 0 0-7.001-7.001zm0 10.001c-1.654 0-3-1.346-3-3s1.346-3 3-3 3 1.346 3 3-1.346 3-3 3z"/><path fill="#CFBE83" d="m52.808 50.649-4.133-3.648a7.003 7.003 0 0 1 4.826-9.838 7.05 7.05 0 0 0-1.5-.165 7.003 7.003 0 0 0-6.326 10.003l4.133 3.648a6.964 6.964 0 0 0 3.725.177c-.244-.053-.491-.099-.725-.177z"/><path fill="#A19361" d="M52.001 36.998a6.99 6.99 0 0 0-2 .294c2.891.861 5 3.536 5.001 6.707a7.004 7.004 0 0 1-4.982 6.702c.63.186 1.291.298 1.981.299a7.003 7.003 0 0 0 7.001-7.001 7.003 7.003 0 0 0-7.001-7.001zM41.999 48l-.667 2.667c0 1.472-1.193 4.333-2.666 4.333h8c1.473 0 2.666-2.861 2.666-4.333L49.999 48h-8z"/><path fill="#F3AA6F" d="M26.875 20.668c-2.563-3.418-1.349-6.338 0-7.69C28.581 11.272 30.294 9.563 32 7c1.706 1.709 2.563 2.563 4.269 5.125 1.713 2.563 2.544 6 .15 8.543h-9.544z"/><path fill="#EE8B65" d="M36.269 12.125C34.563 9.563 33.706 8.709 32 7a28.734 28.734 0 0 1-1.761 2.369c.606.719 1.223 1.544 2.029 2.756 1.713 2.563 2.544 6 .15 8.543h4c2.395-2.543 1.563-5.98-.149-8.543z"/><path fill="#F8C885" d="M30.719 20.668c-1.713-1.71-2.385-3.387-1.125-4.824.591-.675 1.406-1.469 2.406-2.866 0 0 .99.796 1.706 2.563C34.5 17.5 33.75 20.469 32 21l-1.281-.332z"/><path fill="#F2A779" d="M33.706 15.541C32.99 13.774 32 12.978 32 12.978c-.351.489-.669.885-.972 1.248.229.358.465.789.678 1.315.681 1.68.224 4.098-1.022 5.089l.035.038L32 21c1.75-.531 2.5-3.5 1.706-5.459z"/><path fill="#272223" d="M52.001 46.999c-1.654 0-3-1.346-3-3s1.346-3 3-3 3 1.346 3 3-1.346 3-3 3zm0-4a1 1 0 1 0 0 2 1 1 0 0 0 0-2z"/><path fill="#272223" d="M52.001 35.998c-4.411.001-8 3.59-8.001 8.002a7.939 7.939 0 0 0 .596 3h-4.398V30.866A2.59 2.59 0 0 0 41 28.994V21a1 1 0 0 0-1-1h-1.893c1.321-2.394 1.001-5.427-1.007-8.429-1.75-2.629-2.678-3.559-4.393-5.277a.992.992 0 0 0-.807-.289.996.996 0 0 0-.733.441c-1.645 2.47-3.265 4.09-5.001 5.826-1.596 1.599-2.639 4.482-.899 7.728H24a1 1 0 0 0-1 1v6.396c0 .734.31 1.396.803 1.868V47h-9.802a.998.998 0 0 0-.97 1.242l.639 2.558c.065 1.862 1.479 5.2 3.665 5.2h29.332c1.842 0 3.131-2.369 3.531-4.23.591.137 1.19.229 1.804.23 4.411-.001 8-3.59 8.001-8.001-.002-4.411-3.591-8-8.002-8.001zM27.603 13.665c1.482-1.483 3.009-3.009 4.533-5.109 1.154 1.178 1.953 2.099 3.302 4.125.694 1.039 2.764 4.635.253 7.302-.005.005-.006.013-.011.018h-1.271c.01-.021.024-.037.034-.059.699-1.463.773-3.337.19-4.776-.791-1.951-1.884-2.868-2.006-2.966a1 1 0 0 0-1.441.198c-.727 1.016-1.361 1.708-1.871 2.265-.171.186-.329.359-.474.524-.738.842-1.563 2.491.019 4.815h-1.232c-2.558-3.483-.489-5.872-.025-6.337zM31.458 20l-.033-.04c-2.191-2.188-1.383-3.11-1.079-3.457.136-.155.284-.316.443-.491.364-.397.787-.859 1.265-1.452.235.34.496.79.726 1.356.37.914.312 2.214-.142 3.163-.224.47-.52.786-.838.921h-.342zM25 22h14v6.994a.605.605 0 0 1-.604.604.602.602 0 0 1-.598-.604v-3.996a2.6 2.6 0 0 0-5.201 0v.801c0 .329-.269.598-.598.598s-.598-.269-.598-.598a2.607 2.607 0 0 0-2.604-2.603 2.603 2.603 0 0 0-2.597 2.603v1.598a.602.602 0 0 1-1.202 0V22zm.803 7.975a2.592 2.592 0 0 0 2.399-2.578v-1.598a.601.601 0 1 1 1.201 0c0 1.433 1.165 2.598 2.598 2.598s2.598-1.165 2.598-2.598v-.801c0-.329.271-.598.604-.598.329 0 .597.269.597.598v3.996a2.596 2.596 0 0 0 2.399 2.583V47H25.803V29.975zm22.559 20.45a.939.939 0 0 0-.03.242c0 1.341-1.093 3.333-1.666 3.333H17.334c-.574 0-1.667-1.992-1.667-3.333a.984.984 0 0 0-.03-.242L15.281 49h33.437l-.356 1.425zm3.64-.425a6.081 6.081 0 0 1-1.425-.189l.392-1.568a.995.995 0 0 0-.182-.857.996.996 0 0 0-.788-.386h-3.218l-.203-.429A5.953 5.953 0 0 1 46 43.999a6.01 6.01 0 0 1 6.001-6.001 6.01 6.01 0 0 1 6.001 6.001 6.01 6.01 0 0 1-6 6.001z"/></svg>